<svg id="Fondo_rojo" data-name="Fondo rojo" xmlns="http://www.w3.org/2000/svg" xmlns:xlink="http://www.w3.org/1999/xlink" viewBox="0 0 1279.46 1280"><defs><style>.cls-1{fill:url(#Rojo_degrdado);}</style><linearGradient id="Rojo_degrdado" x1="639" y1="1280.8" x2="639" y2="0.99" gradientUnits="userSpaceOnUse"><stop offset="0" stop-color="#e80000"/><stop offset="0.24" stop-color="#ed3a3a"/><stop offset="0.5" stop-color="#f27070"/><stop offset="0.72" stop-color="#f69898"/><stop offset="0.89" stop-color="#f8b0b0"/><stop offset="1" stop-color="#f9b9b9"/></linearGradient></defs><title>Pilotos</title><path class="cls-1" d="M1278.91,587.9v107c-.33.53-.86,1-.94,1.58-5.26,36.4-38.06,68.9-83.19,67.72-29.3-.77-58.64-.07-88-.24-3.52,0-4.82,1.07-5.71,4.36a460.15,460.15,0,0,1-45.25,109.4c-1.81,3.15-1.27,4.67,1.09,7q31.95,31.66,63.67,63.58c33.33,33.5,33.25,82.6-.14,116.08q-28.77,28.85-57.61,57.61c-34.12,34.06-82.95,34-117.14-.16q-31.31-31.26-62.49-62.63c-2.64-2.67-4.38-3.22-7.84-1.23a456.87,456.87,0,0,1-108.49,44.91c-3.58,1-4.9,2.35-4.88,6.32.2,31,.35,62,0,93-.4,37.31-26.6,68.89-63,76.88-2.67.58-5.58.15-8,1.76H585c-.37-1-1.28-.89-2.06-1-41.29-8.22-67.05-39.54-67.08-81.59,0-29.82-.09-59.65.09-89.48,0-3.55-1.08-4.83-4.35-5.71a458.75,458.75,0,0,1-109.42-45.26c-3.17-1.81-4.69-1.24-7,1.12q-31.67,32-63.58,63.68c-33.53,33.34-82.57,33.24-116.07-.19q-28.84-28.77-57.62-57.61c-33.91-34-34-82.87-.14-116.77q31.42-31.5,63-62.86c2.66-2.64,3.17-4.37,1.19-7.83A457.5,457.5,0,0,1,177,768.79c-1-3.61-2.37-4.89-6.33-4.87-31,.2-62,.35-93,0A79.6,79.6,0,0,1,.86,700.88c-.44-2,0-4.35-1.77-6v-110c1.84-.43,1.34-2.14,1.61-3.27,9.46-39.51,40.15-63.84,80.74-63.87,29.82,0,59.64-.08,89.46.08,3.62,0,5.11-1,6.07-4.55a460,460,0,0,1,45.24-109.38c1.63-2.86,1.38-4.33-.92-6.61q-31.95-31.67-63.65-63.57C124,300,124,251,157.62,217.33q28.6-28.65,57.25-57.25c34.38-34.37,83.06-34.4,117.48-.06q31.48,31.41,62.84,63c2.41,2.43,4,2.79,7.05,1a459.56,459.56,0,0,1,108.93-45.09c3.64-1,4.83-2.48,4.8-6.38-.19-30.81-.29-61.64,0-92.46A79.65,79.65,0,0,1,579,2.75c2-.44,4.35,0,6-1.76H691c1.92,1.68,4.38,1,6.56,1.4,38,7.87,64.34,39.82,64.55,78.73q.25,45.73-.07,91.47c0,4,1.29,5.35,4.87,6.32A457.82,457.82,0,0,1,875.39,223.8c3.46,2,5.21,1.45,7.84-1.22q31.46-31.8,63.21-63.32c33.3-33.19,82.46-33.26,115.71-.16q28.88,28.74,57.62,57.61c34.38,34.42,34.44,83.13.14,117.49q-31.42,31.49-63,62.87c-2.36,2.34-2.91,3.85-1.09,7A459.09,459.09,0,0,1,1101,513c1,3.61,2.38,4.89,6.34,4.86,31-.19,62-.33,93,0,37.27.37,68.9,26.6,76.87,63C1277.66,583.22,1277.14,585.87,1278.91,587.9Zm-640.1,293c132.3.12,239.82-107,240.14-239.27.33-132.78-107-240.54-239.77-240.65-132.51-.1-240,107.27-240.14,239.77S506.3,880.74,638.81,880.85Z"/></svg>